<?xml version="1.0" encoding="UTF-8" standalone="no"?>
<!-- Created with Inkscape (http://www.inkscape.org/) -->

<svg
   version="1.1"
   id="svg18"
   width="773"
   height="773"
   viewBox="0 0 773 773"
   xmlns:xlink="http://www.w3.org/1999/xlink"
   xmlns="http://www.w3.org/2000/svg"
   xmlns:svg="http://www.w3.org/2000/svg">
  <defs
     id="defs22">
    <linearGradient
       id="linearGradient447">
      <stop
         style="stop-color:#000000;stop-opacity:1;"
         offset="0"
         id="stop443" />
      <stop
         style="stop-color:#000000;stop-opacity:0;"
         offset="1"
         id="stop445" />
    </linearGradient>
    <linearGradient
       xlink:href="#linearGradient447"
       id="linearGradient449"
       x1="562.38074"
       y1="205.59219"
       x2="-33.616383"
       y2="778.75934"
       gradientUnits="userSpaceOnUse" />
    <linearGradient
       xlink:href="#linearGradient447"
       id="linearGradient451"
       x1="562.38074"
       y1="205.59219"
       x2="-33.616383"
       y2="778.75934"
       gradientUnits="userSpaceOnUse" />
    <linearGradient
       xlink:href="#linearGradient447"
       id="linearGradient453"
       x1="562.38074"
       y1="205.59219"
       x2="-33.616383"
       y2="778.75934"
       gradientUnits="userSpaceOnUse" />
  </defs>
  <g
     id="g24">
    <circle
       style="fill:#ffffff;fill-opacity:1;stroke-width:0.980203"
       id="path2796"
       cx="386.5"
       cy="386.5"
       r="375" />
    <path
       id="path297"
       style="fill:url(#linearGradient453);fill-opacity:1"
       d="m 607.88307,173.84675 c -22.37635,0.0539 -44.75256,-0.0539 -67.12891,0 0,0 -7.94587,201.44225 -167.14558,215.84062 0.52847,-69.45535 0,-215.84062 0,-215.84062 h -67.57027 c 0,0 -0.11367,304.5335 0,456.24051 21.28197,0.024 45.57994,-0.0643 67.57027,0 V 453.70708 c 0,0 51.21176,-4.27739 89.15059,-26.63089 L 568.6526,630.08726 c 26.11956,-0.005 52.23981,0.005 78.35937,0 -43.0835,-80.96172 -86.1665,-162.30706 -129.25,-243.2688 64.40202,-73.26752 82.16814,-135.92782 90.1211,-212.97171 z" />
    <rect
       style="fill:url(#linearGradient451);fill-opacity:1"
       id="rect448"
       width="136.08762"
       height="61.992188"
       x="135.87042"
       y="175.00949" />
    <rect
       style="fill:url(#linearGradient449);fill-opacity:1"
       id="rect450"
       width="87.365211"
       height="60.955269"
       x="184.59283"
       y="391.80176" />
  </g>
</svg>
