<?xml version="1.0" encoding="UTF-8" standalone="no"?>
<!-- Generator: Adobe Illustrator 25.0.1, SVG Export Plug-In . SVG Version: 6.00 Build 0)  -->

<svg
   version="1.0"
   id="katman_1"
   x="0px"
   y="0px"
   viewBox="0 0 270.12241 270.07849"
   xml:space="preserve"
   width="270.12241"
   height="270.07849"
   xmlns="http://www.w3.org/2000/svg"
   xmlns:svg="http://www.w3.org/2000/svg"><defs
   id="defs54" />
<style
   type="text/css"
   id="style25">
	.st0{fill:#FBCB07;}
	.st1{fill:#FFFFFF;}
	.st2{fill:#192847;}
</style>
<g
   transform="matrix(1.35937,0,0,-1.35937,0.03398425,270.07849)"
   id="g49">
	<path
   class="st0"
   d="m 196.1,75.6 -79.9,5.1 c -0.3,0 -0.7,-0.1 -0.8,-0.4 -0.2,-0.3 -0.2,-0.6 0,-0.9 L 125.5,62.7 98.6,46.6 c -4.2,5.4 -8.9,10.9 -14,16.5 l 66.8,64.6 13,-13 c 0.2,-0.2 0.5,-0.3 0.8,-0.2 0.3,0.1 0.5,0.3 0.6,0.6 l 31,80.6 c 0.3,0.7 -0.5,1.4 -1.2,1.2 l -80.6,-31 c -0.3,-0.1 -0.5,-0.4 -0.6,-0.7 -0.1,-0.3 0,-0.6 0.2,-0.8 l 13,-13 -64.4,-66.8 c -5.6,5.1 -11.1,9.8 -16.5,14 l 16.1,26.7 16.8,-10.1 c 0.3,-0.2 0.6,-0.2 0.9,0 0.3,0.2 0.4,0.5 0.4,0.8 l -5.1,79.9 c 0,0.4 -0.3,0.7 -0.7,0.8 -0.4,0.1 -0.8,-0.1 -1,-0.4 L 40.1,140 C 40,139.9 40,139.8 40,139.6 L 9.6,89.1 C 9.5,88.9 9.4,88.6 9.5,88.4 9.6,88.2 9.7,88 9.9,87.8 18.6,83.2 30.7,74.1 42.6,63.3 L 1.7,21 21,1.7 63.4,42.7 C 74.2,30.8 83.3,18.6 87.9,9.9 88,9.7 88.2,9.5 88.5,9.5 c 0.2,-0.1 0.5,0 0.7,0.1 l 50.5,30.3 c 0.1,0 0.3,0.1 0.4,0.1 l 56.4,34 c 0.3,0.2 0.5,0.6 0.4,1 -0.1,0.3 -0.4,0.6 -0.8,0.6"
   id="path27" />
	<path
   class="st1"
   d="m 79.1,116 c 0,0 0,0 0,0 z m 86.5,-0.1 v 0 c 0,0 0,0 0,0 z M 10.7,89.4 c 0,0 0,0 0,0 0,0 0,0 0,0 z M 116,79.1 c 0,0 0,0 0,0 z M 196,74 Z M 139.5,41.6 c 0,0 0,0 0,0 0,0 0,0 0,0 z M 88.3,11 c 0,0 0,0 0,0 z m 1.1,-0.3 c 0,0 0,0 0,0 0,0 0,0 0,0 z M 4.1,21 21.1,4 62.3,43.8 c 0.3,0.3 0.8,0.5 1.2,0.5 0.5,0 0.9,-0.2 1.2,-0.6 C 75.2,32.2 84.2,20.2 89,11.5 l 49.8,29.9 c 0.2,0.1 0.3,0.2 0.5,0.2 l 54.1,32.5 -75.8,4.9 9.3,-15.4 c 0.5,-0.8 0.2,-1.8 -0.6,-2.3 L 99.5,45.2 c -0.7,-0.4 -1.7,-0.3 -2.2,0.4 -4.2,5.3 -8.9,10.9 -13.9,16.4 -0.6,0.7 -0.6,1.7 0.1,2.4 l 66.8,64.6 c 0.7,0.6 1.7,0.6 2.4,0 l 12.1,-12.1 29.9,77.8 -77.8,-29.9 12.1,-12.1 c 0.7,-0.7 0.7,-1.7 0,-2.4 L 64.4,83.4 C 63.8,82.7 62.7,82.7 62,83.3 56.4,88.4 50.9,93 45.6,97.2 c -0.7,0.5 -0.8,1.5 -0.4,2.2 l 16.1,26.7 c 0.2,0.4 0.6,0.7 1,0.8 0.4,0.1 0.9,0 1.3,-0.2 L 79,117.4 74.1,193.3 41.6,139.2 c 0,-0.2 -0.1,-0.4 -0.2,-0.5 L 11.5,89 c 8.7,-4.8 20.7,-13.8 32.3,-24.3 0.3,-0.3 0.5,-0.7 0.6,-1.2 0,-0.5 -0.2,-0.9 -0.5,-1.2 z M 21,0 C 20.6,0 20.1,0.2 19.8,0.5 L 0.5,19.8 c -0.7,0.7 -0.7,1.7 0,2.4 L 40.3,63.3 C 28.9,73.5 17.4,82 9.2,86.4 8.6,86.7 8.1,87.3 7.9,88 7.7,88.7 7.8,89.4 8.2,90 l 30.2,50.3 c 0.1,0.2 0.1,0.4 0.3,0.6 l 33.9,56.5 c 0.6,1 1.7,1.4 2.8,1.2 1.1,-0.3 1.9,-1.2 2,-2.4 l 5.1,-80 c 0.1,-1 -0.4,-1.9 -1.2,-2.4 -0.8,-0.5 -1.8,-0.5 -2.7,0 L 63.3,123 48.9,99 c 4.7,-3.7 9.4,-7.7 14.2,-12 l 62.3,64.4 -11.8,11.8 c -0.6,0.6 -0.9,1.5 -0.7,2.4 0.2,0.9 0.8,1.6 1.6,1.9 l 80.6,31 c 0.9,0.4 2,0.1 2.7,-0.6 0.7,-0.7 1,-1.8 0.6,-2.7 l -31,-80.6 c -0.3,-0.8 -1,-1.4 -1.9,-1.6 -0.9,-0.2 -1.8,0.1 -2.4,0.7 L 151.3,125.5 87,63.1 c 4.3,-4.8 8.4,-9.6 12.1,-14.2 l 24,14.4 -9.2,15.3 c -0.5,0.8 -0.5,1.9 0,2.7 0.5,0.8 1.4,1.3 2.4,1.2 l 79.9,-5.1 c 1.1,-0.1 2.1,-0.9 2.4,-2 0.3,-1.1 -0.2,-2.3 -1.2,-2.8 L 140.9,38.7 c -0.2,-0.1 -0.4,-0.2 -0.6,-0.3 L 90,8.1 C 89.4,7.7 88.7,7.6 88,7.8 87.3,8 86.7,8.5 86.4,9.1 82.1,17.3 73.5,28.8 63.4,40.2 L 22.2,0.5 C 21.9,0.2 21.4,0 21,0 Z"
   id="path29" />
	<path
   class="st1"
   d="m 184.6,177.5 -26.3,-47.7 4.9,-4.9 z"
   id="path31" />
	<path
   class="st1"
   d="M 176,67.3 88.5,24 91.8,18.6 Z"
   id="path33" />
	<path
   class="st1"
   d="M 72.9,167.7 75,123.8 69.7,127 Z"
   id="path35" />
	<path
   class="st2"
   d="m 196.1,75.6 -79.9,5.1 c -0.3,0 -0.7,-0.1 -0.8,-0.4 -0.2,-0.3 -0.2,-0.6 0,-0.9 L 125.5,62.7 98.6,46.6 c -4.2,5.4 -8.9,10.9 -14,16.5 l 66.8,64.6 13,-13 c 0.2,-0.2 0.5,-0.3 0.8,-0.2 0.3,0.1 0.5,0.3 0.6,0.6 l 31,80.6 c 0.3,0.7 -0.5,1.4 -1.2,1.2 l -80.6,-31 c -0.3,-0.1 -0.5,-0.4 -0.6,-0.7 -0.1,-0.3 0,-0.6 0.2,-0.8 l 13,-13 -64.4,-66.8 c -5.6,5.1 -11.1,9.8 -16.5,14 l 16.1,26.7 16.8,-10.1 c 0.3,-0.2 0.6,-0.2 0.9,0 0.3,0.2 0.4,0.5 0.4,0.8 l -5.1,79.9 c 0,0.4 -0.3,0.7 -0.7,0.8 -0.4,0.1 -0.8,-0.1 -1,-0.4 L 40.1,140 C 40,139.9 40,139.8 40,139.6 L 9.6,89.1 C 9.5,88.9 9.4,88.6 9.5,88.4 9.6,88.2 9.7,88 9.9,87.8 18.6,83.2 30.7,74.1 42.6,63.3 L 1.7,21 21,1.7 63.4,42.7 C 74.2,30.8 83.3,18.6 87.9,9.9 88,9.7 88.2,9.5 88.5,9.5 c 0.2,-0.1 0.5,0 0.7,0.1 l 50.5,30.3 c 0.1,0 0.3,0.1 0.4,0.1 l 56.4,34 c 0.3,0.2 0.5,0.6 0.4,1 -0.1,0.3 -0.4,0.6 -0.8,0.6"
   id="path37" />
	<g
   id="g47">
		<path
   class="st0"
   d="m 79.1,116 c 0,0 0,0 0,0 z m 86.5,-0.1 v 0 c 0,0 0,0 0,0 z M 10.7,89.4 c 0,0 0,0 0,0 0,0 0,0 0,0 z M 116,79.1 c 0,0 0,0 0,0 z M 196,74 Z M 139.5,41.6 c 0,0 0,0 0,0 0,0 0,0 0,0 z M 88.3,11 c 0,0 0,0 0,0 z m 1.1,-0.3 c 0,0 0,0 0,0 0,0 0,0 0,0 z M 4.1,21 21.1,4 62.3,43.8 c 0.3,0.3 0.8,0.5 1.2,0.5 0.5,0 0.9,-0.2 1.2,-0.6 C 75.2,32.2 84.2,20.2 89,11.5 l 49.8,29.9 c 0.2,0.1 0.3,0.2 0.5,0.2 l 54.1,32.5 -75.8,4.9 9.3,-15.4 c 0.5,-0.8 0.2,-1.8 -0.6,-2.3 L 99.5,45.2 c -0.7,-0.4 -1.7,-0.3 -2.2,0.4 -4.2,5.3 -8.9,10.9 -13.9,16.4 -0.6,0.7 -0.6,1.7 0.1,2.4 l 66.8,64.6 c 0.7,0.6 1.7,0.6 2.4,0 l 12.1,-12.1 29.9,77.8 -77.8,-29.9 12.1,-12.1 c 0.7,-0.7 0.7,-1.7 0,-2.4 L 64.4,83.4 C 63.8,82.7 62.7,82.7 62,83.3 56.4,88.4 50.9,93 45.6,97.2 c -0.7,0.5 -0.8,1.5 -0.4,2.2 l 16.1,26.7 c 0.2,0.4 0.6,0.7 1,0.8 0.4,0.1 0.9,0 1.3,-0.2 L 79,117.4 74.1,193.3 41.6,139.2 c 0,-0.2 -0.1,-0.4 -0.2,-0.5 L 11.5,89 c 8.7,-4.8 20.7,-13.8 32.3,-24.3 0.3,-0.3 0.5,-0.7 0.6,-1.2 0,-0.5 -0.2,-0.9 -0.5,-1.2 z M 21,0 C 20.6,0 20.1,0.2 19.8,0.5 L 0.5,19.8 c -0.7,0.7 -0.7,1.7 0,2.4 L 40.3,63.3 C 28.9,73.5 17.4,82 9.2,86.4 8.6,86.7 8.1,87.3 7.9,88 7.7,88.7 7.8,89.4 8.2,90 l 30.2,50.3 c 0.1,0.2 0.1,0.4 0.3,0.6 l 33.9,56.5 c 0.6,1 1.7,1.4 2.8,1.2 1.1,-0.3 1.9,-1.2 2,-2.4 l 5.1,-80 c 0.1,-1 -0.4,-1.9 -1.2,-2.4 -0.8,-0.5 -1.8,-0.5 -2.7,0 L 63.3,123 48.9,99 c 4.7,-3.7 9.4,-7.7 14.2,-12 l 62.3,64.4 -11.8,11.8 c -0.6,0.6 -0.9,1.5 -0.7,2.4 0.2,0.9 0.8,1.6 1.6,1.9 l 80.6,31 c 0.9,0.4 2,0.1 2.7,-0.6 0.7,-0.7 1,-1.8 0.6,-2.7 l -31,-80.6 c -0.3,-0.8 -1,-1.4 -1.9,-1.6 -0.9,-0.2 -1.8,0.1 -2.4,0.7 L 151.3,125.5 87,63.1 c 4.3,-4.8 8.4,-9.6 12.1,-14.2 l 24,14.4 -9.2,15.3 c -0.5,0.8 -0.5,1.9 0,2.7 0.5,0.8 1.4,1.3 2.4,1.2 l 79.9,-5.1 c 1.1,-0.1 2.1,-0.9 2.4,-2 0.3,-1.1 -0.2,-2.3 -1.2,-2.8 L 140.9,38.7 c -0.2,-0.1 -0.4,-0.2 -0.6,-0.3 L 90,8.1 C 89.4,7.7 88.7,7.6 88,7.8 87.3,8 86.7,8.5 86.4,9.1 82.1,17.3 73.5,28.8 63.4,40.2 L 22.2,0.5 C 21.9,0.2 21.4,0 21,0 Z"
   id="path39" />
		<path
   class="st0"
   d="m 184.6,177.5 -26.3,-47.7 4.9,-4.9 z"
   id="path41" />
		<path
   class="st0"
   d="M 176,67.3 88.5,24 91.8,18.6 Z"
   id="path43" />
		<path
   class="st0"
   d="M 72.9,167.7 75,123.8 69.7,127 Z"
   id="path45" />
	</g>
</g>
</svg>
